<?xml version="1.0" encoding="UTF-8" standalone="no"?>
<svg
   xmlns:dc="http://purl.org/dc/elements/1.1/"
   xmlns:cc="http://creativecommons.org/ns#"
   xmlns:rdf="http://www.w3.org/1999/02/22-rdf-syntax-ns#"
   xmlns:svg="http://www.w3.org/2000/svg"
   xmlns="http://www.w3.org/2000/svg"
   version="1.1"
   id="svg3609"
   viewBox="0 0 285.27685 230.60454"
   height="65.081726mm"
   width="80.511467mm">
  <defs
     id="defs3611">
    <clipPath
       id="clipPath80"
       clipPathUnits="userSpaceOnUse">
      <path
         id="path82"
         d="m 1113.724,771.049 84.013,0 0,67.913 -84.013,0 0,-67.913 z" />
    </clipPath>
  </defs>
  <metadata
     id="metadata3614">
    <rdf:RDF>
      <cc:Work
         rdf:about="">
        <dc:format>image/svg+xml</dc:format>
        <dc:type
           rdf:resource="http://purl.org/dc/dcmitype/StillImage" />
        <dc:title></dc:title>
      </cc:Work>
    </rdf:RDF>
  </metadata>
  <g
     transform="translate(-293.20604,-372.77436)"
     id="layer1">
    <g
       id="g3671">
      <g
         transform="matrix(3.3956275,0,0,-3.3956275,-3488.5858,3221.5768)"
         id="g78"
         clip-path="url(#clipPath80)">
        <g
           id="g84"
           transform="translate(1195.5923,837.0656)">
          <path
             d="m 0,0 0.477,0 c 0.237,0 0.26,-0.14 0.26,-0.26 l 0.035,-0.366 0.242,0 0,0.033 -0.073,0.146 -0.012,0.264 c -0.008,0.204 -0.092,0.24 -0.175,0.275 0.094,0.054 0.203,0.134 0.203,0.349 0,0.309 -0.24,0.392 -0.48,0.392 l -0.674,0 0,-1.459 0.197,0 L 0,0 Z m 0,0.665 0.492,0 C 0.59,0.665 0.754,0.646 0.754,0.421 0.754,0.205 0.602,0.169 0.457,0.169 L 0,0.169 0,0.665 Z"
             style="fill:#134b82;fill-opacity:1;fill-rule:nonzero;stroke:none"
             id="path86" />
        </g>
        <g
           id="g88"
           transform="translate(1194.447,837.212)">
          <path
             d="M 0,0 C 0,0.829 0.674,1.503 1.503,1.503 2.331,1.503 3.005,0.829 3.005,0 3.005,-0.829 2.331,-1.503 1.503,-1.503 0.674,-1.503 0,-0.829 0,0 m -0.169,0 c 0,-0.922 0.75,-1.672 1.672,-1.672 0.922,0 1.672,0.75 1.672,1.672 0,0.922 -0.75,1.672 -1.672,1.672 -0.922,0 -1.672,-0.75 -1.672,-1.672"
             style="fill:#134b82;fill-opacity:1;fill-rule:nonzero;stroke:none"
             id="path90" />
        </g>
        <g
           id="g92"
           transform="translate(1190.3003,838.962)">
          <path
             d="m 0,0 -32.436,0 -43.939,-53.406 33.396,0 L 0,0 Z"
             style="fill:#134b82;fill-opacity:1;fill-rule:nonzero;stroke:none"
             id="path94" />
        </g>
        <g
           id="g96"
           transform="translate(1192.0227,810.3759)">
          <path
             d="m 0,0 -17.153,0 -7.439,0 0,-24.834 7.439,0 17.682,0 c 0,0 5.108,0.584 5.186,5.701 l 0,13.432 C 5.398,-0.064 0,0 0,0"
             style="fill:#134b82;fill-opacity:1;fill-rule:nonzero;stroke:none"
             id="path98" />
        </g>
        <g
           id="g100"
           transform="translate(1121.175,777.3124)">
          <path
             d="m 0,0 c 0,-0.497 -0.403,-0.901 -0.899,-0.901 0,0 -4.004,0.001 -4.106,0.001 l 0,2.092 2.374,0 1.732,0 C -0.403,1.192 0,0.787 0,0.29 L 0,0 Z m -0.578,-4.545 -4.304,0 0,2.196 2.489,0 1.815,0 c 0.52,0 0.944,-0.424 0.944,-0.946 l 0,-0.304 c 0,-0.522 -0.424,-0.946 -0.944,-0.946 m 1.389,3.017 -0.059,0 c 1.027,0.144 1.833,1.015 1.833,2.109 0,1.195 -0.945,2.167 -2.106,2.167 l -1.348,0 -6.582,0 0,-8.93 8.262,0 c 1.161,0 2.106,1.044 2.106,2.327 0,1.284 -0.945,2.327 -2.106,2.327"
             style="fill:#8a8b80;fill-opacity:1;fill-rule:nonzero;stroke:none"
             id="path102" />
        </g>
        <g
           id="g104"
           transform="translate(1145.1572,774.3278)">
          <path
             d="m 0,0 -3.955,0 c 0.067,0.142 1.869,3.979 1.958,4.169 C -1.907,3.98 -0.069,0.143 0,0 m -0.219,5.841 -3.77,0 -4.173,-9.105 2.772,0 0.759,1.631 5.351,0 0.909,-1.645 2.723,0 -4.539,9.119 -0.032,0 z"
             style="fill:#8a8b80;fill-opacity:1;fill-rule:nonzero;stroke:none"
             id="path106" />
        </g>
        <g
           id="g108"
           transform="translate(1133.3945,777.2899)">
          <path
             d="M 0,0 0,-0.269 C 0,-1.01 -0.584,-1.612 -1.303,-1.612 l -4.049,0 0,2.956 1.619,0 2.43,0 C -0.584,1.344 0,0.741 0,0 M 2.646,-0.017 2.645,0.107 2.646,0.175 C 2.646,0.427 2.594,1.313 1.908,2.008 1.292,2.632 0.344,2.919 -0.91,2.861 l -5.144,0.003 -1.804,0 0,-9.065 2.511,0 0,3.035 3.845,0 c 0.552,-0.054 0.961,-0.236 1.211,-0.541 0.298,-0.363 0.26,-0.78 0.26,-0.784 l 0,-1.732 2.564,0 0,1.581 0.005,0.193 c 0,0.634 -0.177,1.143 -0.529,1.511 -0.373,0.39 -0.85,0.531 -1.201,0.589 0.361,0.071 0.858,0.232 1.255,0.654 0.387,0.412 0.583,0.976 0.583,1.678"
             style="fill:#8a8b80;fill-opacity:1;fill-rule:nonzero;stroke:none"
             id="path110" />
        </g>
        <g
           id="g112"
           transform="translate(1178.0225,775.0306)">
          <path
             d="m 0,0 6.059,0 0,1.477 -6.059,0 c 0,0.099 0.002,2.101 0.002,2.2 l 6.347,0 0,1.466 -0.053,0 -8.758,0 0,-9.097 8.858,0 0,1.636 L 0,-2.318 0,0 Z"
             style="fill:#8a8b80;fill-opacity:1;fill-rule:nonzero;stroke:none"
             id="path114" />
        </g>
        <g
           id="g116"
           transform="translate(1173.6536,780.1536)">
          <path
             d="m 0,0 -2.999,0 -4.125,-3.609 c 0,0 -1.057,0.012 -1.154,0.013 l 0,3.597 -0.053,0 -2.38,0 -0.005,-9.086 2.438,0 0,3.905 1.364,0 4.613,-3.9 0.015,-0.012 3.074,0 c 0,0 -5.531,4.7 -5.622,4.777 L 0,0"
             style="fill:#8a8b80;fill-opacity:1;fill-rule:nonzero;stroke:none"
             id="path118" />
        </g>
        <g
           id="g120"
           transform="translate(1197.6758,780.188)">
          <path
             d="m 0,0 -2.364,0 0,-7.237 c -0.184,0.247 -5.378,7.216 -5.378,7.216 L -9.558,0 l -2.364,0 0,-9.122 2.417,0 0,7.396 c 0.184,-0.245 5.562,-7.378 5.562,-7.378 L -2.042,-9.128 0.053,-9.122 0.053,0 0,0 Z"
             style="fill:#8a8b80;fill-opacity:1;fill-rule:nonzero;stroke:none"
             id="path122" />
        </g>
        <g
           id="g124"
           transform="translate(1159.2617,775.5286)">
          <path
             d="m 0,0 c 0,-0.474 -0.018,-0.963 -0.074,-1.311 -0.229,-1.401 -2.001,-1.342 -2.019,-1.341 l -4.095,0 0,5.781 3.844,0 C -1.502,3.148 -0.875,2.954 -0.48,2.552 -0.064,2.13 -0.047,1.608 -0.047,1.529 L -0.048,1.519 C -0.047,1.504 0,0.772 0,0 m -1.407,4.639 -0.698,0 -6.73,0 0,-9.096 7.428,0 c 2.127,0 3.857,1.34 3.857,2.988 l 0,3.119 c 0,1.648 -1.73,2.989 -3.857,2.989"
             style="fill:#8a8b80;fill-opacity:1;fill-rule:nonzero;stroke:none"
             id="path126" />
        </g>
      </g>
    </g>
  </g>
</svg>
